<?xml version="1.0" standalone="no"?><!DOCTYPE svg PUBLIC "-//W3C//DTD SVG 1.1//EN" "http://www.w3.org/Graphics/SVG/1.1/DTD/svg11.dtd"><svg t="1640406980959" class="icon" viewBox="0 0 1024 1024" version="1.1" xmlns="http://www.w3.org/2000/svg" p-id="30678" xmlns:xlink="http://www.w3.org/1999/xlink" width="200" height="200"><defs><style type="text/css"></style></defs><path d="M588.8 409.6c-12.8-6.4-19.2-12.8-32-12.8s-19.2 6.4-32 12.8c-12.8 12.8-25.6 25.6-38.4 44.8-6.4 0-6.4 6.4-12.8 6.4-6.4 6.4-6.4 12.8 0 19.2 6.4 6.4 12.8 6.4 19.2 0l51.2-51.2c6.4-6.4 12.8-6.4 19.2 0 12.8 6.4 25.6 19.2 32 25.6 6.4 6.4 6.4 12.8 0 19.2-25.6 32-51.2 57.6-76.8 83.2-6.4 6.4-12.8 6.4-25.6 0 0-6.4-6.4-6.4-12.8-12.8s-12.8-6.4-19.2 0c-6.4 6.4-6.4 12.8 0 19.2 6.4 6.4 12.8 6.4 19.2 12.8 19.2 12.8 38.4 12.8 57.6 0l83.2-83.2c12.8-19.2 12.8-38.4 0-57.6-12.8-6.4-25.6-19.2-32-25.6z" fill="#00A8FF" p-id="30679"></path><path d="M473.6 601.6l-51.2 51.2c-6.4 6.4-12.8 6.4-19.2 0l-25.6-25.6c-6.4-6.4-6.4-12.8 0-19.2 19.2-32 44.8-57.6 70.4-83.2 6.4-6.4 12.8-6.4 19.2 0 6.4 6.4 6.4 12.8 12.8 12.8 6.4 6.4 12.8 6.4 19.2 0 12.8-6.4 12.8-12.8 6.4-19.2l-12.8-12.8c-19.2-19.2-44.8-19.2-57.6 0-32 25.6-57.6 51.2-83.2 76.8-19.2 19.2-19.2 38.4 0 57.6l32 32c6.4 6.4 19.2 12.8 25.6 12.8 12.8 0 25.6-6.4 32-12.8 6.4-12.8 19.2-19.2 25.6-32l25.6-25.6c6.4-6.4 6.4-12.8 0-19.2-6.4 0-12.8 0-19.2 6.4z" fill="#00A8FF" p-id="30680"></path><path d="M800 0h-576C102.4 0 0 102.4 0 224v576C0 921.6 102.4 1024 224 1024h576c121.6 0 224-102.4 224-224v-576C1024 102.4 921.6 0 800 0z m-121.6 704c0 12.8-12.8 25.6-25.6 25.6H320c-12.8 0-25.6-12.8-25.6-25.6V377.6c0-12.8 12.8-25.6 25.6-25.6h326.4c12.8 0 25.6 12.8 25.6 25.6V704z m51.2-57.6c0 12.8-12.8 25.6-25.6 25.6V339.2c0-12.8-6.4-19.2-19.2-19.2H345.6c0-12.8 12.8-25.6 25.6-25.6H704c12.8 0 25.6 12.8 25.6 25.6v326.4z" fill="#00A8FF" p-id="30681"></path></svg>